<?xml version="1.0" encoding="UTF-8" standalone="no"?>
<!-- Created with Inkscape (http://www.inkscape.org/) -->

<svg
   width="90.583092mm"
   height="90.582588mm"
   viewBox="0 0 90.583092 90.582588"
   version="1.1"
   id="svg1"
   xmlns:inkscape="http://www.inkscape.org/namespaces/inkscape"
   xmlns:sodipodi="http://sodipodi.sourceforge.net/DTD/sodipodi-0.dtd"
   xmlns="http://www.w3.org/2000/svg"
   xmlns:svg="http://www.w3.org/2000/svg">
  <sodipodi:namedview
     id="namedview1"
     pagecolor="#505050"
     bordercolor="#ffffff"
     borderopacity="1"
     inkscape:showpageshadow="0"
     inkscape:pageopacity="0"
     inkscape:pagecheckerboard="1"
     inkscape:deskcolor="#505050"
     inkscape:document-units="mm" />
  <defs
     id="defs1" />
  <g
     inkscape:label="Layer 1"
     inkscape:groupmode="layer"
     id="layer1"
     transform="translate(-63.939775,-162.23274)">
    <path
       id="path5"
       style="color:#000000;fill:#000000;stroke-linecap:round;stroke-linejoin:round;-inkscape-stroke:none"
       d="m 109.23158,162.23274 a 45.291496,45.291496 0 0 0 -45.291806,45.29129 45.291496,45.291496 0 0 0 45.291806,45.29129 45.291496,45.291496 0 0 0 45.29129,-45.29129 45.291496,45.291496 0 0 0 -45.29129,-45.29129 z m -5.1e-4,17.84645 a 5,5 0 0 1 4.99969,4.9997 v 17.44545 h 17.44545 a 5,5 0 0 1 5.00021,5.00021 5,5 0 0 1 -5.00021,4.99969 h -17.44545 v 17.44545 a 5,5 0 0 1 -4.99969,4.99969 5,5 0 0 1 -5.00021,-4.99969 V 212.52424 H 86.785925 a 5,5 0 0 1 -5.000212,-4.99969 5,5 0 0 1 5.000212,-5.00021 h 17.444935 v -17.44545 a 5,5 0 0 1 5.00021,-4.9997 z" />
    <g
       id="path2"
       transform="translate(-2.0040486,131.8664)">
      <path
         style="color:#000000;fill:#ffffff;stroke-linecap:round;stroke-linejoin:round;-inkscape-stroke:none"
         d="m 93.789464,89.380562 h 22.445346 m -22.445346,0 V 66.935216 m 0,22.445346 H 71.344118 m 22.445346,0 v 22.445348"
         id="path8" />
    </g>
  </g>
</svg>
